HIERARCHY
ROOT Hips
{
    OFFSET 0.000000 0.000000 0.000000
    CHANNELS 6 Xposition Yposition Zposition Zrotation Xrotation Yrotation
    JOINT Spine
    {
        OFFSET -0.000000 14.517291 0.000000
        CHANNELS 3 Zrotation Xrotation Yrotation
        JOINT Spine1
        {
            OFFSET -0.000000 37.558300 0.000000
            CHANNELS 3 Zrotation Xrotation Yrotation
            JOINT Neck
            {
                OFFSET -0.000000 37.404057 3.400369
                CHANNELS 3 Zrotation Xrotation Yrotation
                JOINT Head
                {
                    OFFSET -0.000000 24.785618 -3.540803
                    CHANNELS 3 Zrotation Xrotation Yrotation
                    End Site
                    {
                        OFFSET -0.000000 35.408028 0.000000
                    }
                }
            }
            JOINT LeftShoulder
            {
                OFFSET 6.992933 33.973492 -0.192664
                CHANNELS 3 Zrotation Xrotation Yrotation
                JOINT LeftArm
                {
                    OFFSET 21.527611 0.000000 0.000000
                    CHANNELS 3 Zrotation Xrotation Yrotation
                    JOINT LeftForeArm
                    {
                        OFFSET 56.353916 0.000000 0.000000
                        CHANNELS 3 Zrotation Xrotation Yrotation
                        JOINT LeftHand
                        {
                            OFFSET 47.774071 0.000000 0.000000
                            CHANNELS 3 Zrotation Xrotation Yrotation
                            End Site
                            {
                                OFFSET 26.556021 0.000000 0.000000
                            }
                        }
                    }
                }
            }
            JOINT RightShoulder
            {
                OFFSET -7.065357 33.973492 -0.192664
                CHANNELS 3 Zrotation Xrotation Yrotation
                JOINT RightArm
                {
                    OFFSET -21.527611 0.000000 0.000000
                    CHANNELS 3 Zrotation Xrotation Yrotation
                    JOINT RightForeArm
                    {
                        OFFSET -56.353916 0.000000 0.000000
                        CHANNELS 3 Zrotation Xrotation Yrotation
                        JOINT RightHand
                        {
                            OFFSET -47.774071 0.000000 0.000000
                            CHANNELS 3 Zrotation Xrotation Yrotation
                            End Site
                            {
                                OFFSET -26.556021 0.000000 0.000000
                            }
                        }
                    }
                }
            }
        }
    }
    JOINT LeftUpLeg
    {
        OFFSET 17.704014 0.000000 0.000000
        CHANNELS 3 Zrotation Xrotation Yrotation
        JOINT LeftLeg
        {
            OFFSET -0.000000 -81.181816 0.000000
            CHANNELS 3 Zrotation Xrotation Yrotation
            JOINT LeftFoot
            {
                OFFSET -0.000000 -62.821102 0.000000
                CHANNELS 3 Zrotation Xrotation Yrotation
                JOINT LeftToeBase
                {
                    OFFSET -0.000000 -11.507608 26.556021
                    CHANNELS 3 Zrotation Xrotation Yrotation
                    End Site
                    {
                        OFFSET -0.000000 0.000000 7.081605
                    }
                }
            }
        }
    }
    JOINT RightUpLeg
    {
        OFFSET -17.704014 0.000000 0.000000
        CHANNELS 3 Zrotation Xrotation Yrotation
        JOINT RightLeg
        {
            OFFSET -0.000000 -81.181816 0.000000
            CHANNELS 3 Zrotation Xrotation Yrotation
            JOINT RightFoot
            {
                OFFSET -0.000000 -62.821102 0.000000
                CHANNELS 3 Zrotation Xrotation Yrotation
                JOINT RightToeBase
                {
                    OFFSET -0.000000 -11.507608 26.556021
                    CHANNELS 3 Zrotation Xrotation Yrotation
                    End Site
                    {
                        OFFSET -0.000000 0.000000 7.081605
                    }
                }
            }
        }
    }
}
MOTION
Frames:    14
Frame Time:    0.008333
-5.342188    152.549866    -13.738726    -0.668250    1.256416    17.327660    -1.435879    0.737549    7.095073    -2.867333    0.008745    2.361938    3.980255    3.124053    -9.609424    7.830899    -2.538487    -9.206835    3.122217    3.985517    -8.184302    -44.104927    18.455303    -44.630318    -11.981678    -13.459334    -130.280960    3.214399    -37.220284    -5.407507    -2.054507    8.691450    -2.924826    34.919415    7.499821    52.342304    -13.807569    -35.712231    70.159889    8.973823    -25.540579    26.040771    2.794079    -34.054623    -26.397551    -11.148215    22.434486    -19.293272    -9.529580    2.610362    30.765968    0.000000    0.000000    0.000000    1.140455    11.611691    -8.796803    3.424715    21.752527    -0.369105    -2.198389    -29.714960    -6.017684    0.000000    0.000000    0.000000    
-5.342103    152.550125    -13.745132    -0.672216    1.247940    17.313599    -1.342333    0.843067    7.096913    -2.931077    0.041229    2.363240    3.747931    2.691988    -9.611251    7.952694    -2.193113    -9.198866    3.094736    3.825138    -7.879566    -43.948967    18.716118    -44.764160    -12.002346    -13.621891    -130.417023    2.524230    -37.440018    -5.796834    -2.311831    8.709404    -2.891436    34.729511    7.258770    53.434948    -14.283576    -36.023708    68.451126    9.111147    -25.814241    26.345907    2.815377    -34.039959    -26.367044    -11.148344    22.420143    -19.278156    -9.526943    2.614110    30.744722    0.000000    0.000000    0.000000    1.144553    11.666488    -8.790990    3.419467    21.753860    -0.373639    -2.188030    -29.782055    -5.997452    0.000000    0.000000    0.000000    
-5.343987    152.550201    -13.759208    -0.674505    1.247785    17.293964    -1.321204    0.839100    7.158974    -2.921689    0.065971    2.384614    3.657614    2.654654    -9.636370    8.000993    -2.178213    -9.208303    3.059470    3.811615    -7.885428    -43.888199    18.757513    -44.806705    -11.954172    -13.739271    -130.426804    2.838149    -37.462658    -5.657956    -2.379245    8.676121    -2.769629    34.403900    7.003786    54.281807    -14.701586    -36.321812    66.672997    9.438752    -26.076117    26.853960    2.831251    -34.038105    -26.311792    -11.134120    22.416878    -19.296795    -9.544581    2.613210    30.742393    0.000000    0.000000    0.000000    1.140046    11.655906    -8.779449    3.421124    21.761566    -0.379085    -2.183743    -29.790657    -5.982181    0.000000    0.000000    0.000000    
-5.342209    152.548264    -13.766077    -0.672534    1.241456    17.281441    -1.311820    0.836873    7.210485    -2.885125    0.092849    2.402501    3.542202    2.610431    -9.656898    8.057811    -2.149740    -9.209541    2.993879    3.786961    -7.887325    -43.823582    18.800673    -44.822075    -11.915573    -13.829494    -130.435440    3.057386    -37.475517    -5.515537    -2.469170    8.578821    -2.582343    34.056858    6.856300    54.986000    -15.176826    -36.751606    64.945938    9.835531    -26.411415    27.668682    2.837597    -34.029575    -26.273849    -11.125408    22.418533    -19.298956    -9.538618    2.613955    30.724535    0.000000    0.000000    0.000000    1.133848    11.656125    -8.779850    3.417907    21.770388    -0.360036    -2.180766    -29.796274    -5.981390    0.000000    0.000000    0.000000    
-5.345868    152.545120    -13.777663    -0.674418    1.239332    17.270563    -1.297120    0.844300    7.265355    -2.872251    0.102730    2.421039    3.473418    2.565674    -9.673510    8.080500    -2.125062    -9.217713    2.959277    3.775053    -7.898336    -43.780540    18.832991    -44.844028    -11.902506    -13.891522    -130.448288    3.031186    -37.507214    -5.492453    -2.527738    8.489283    -2.393217    33.762897    6.612927    55.652397    -15.741029    -36.936131    63.223106    10.018281    -26.538498    27.763931    2.852517    -34.027447    -26.256021    -11.122870    22.408344    -19.310728    -9.548750    2.611162    30.731649    0.000000    0.000000    0.000000    1.133341    11.649916    -8.792210    3.412233    21.780510    -0.315525    -2.218179    -29.809872    -6.017669    0.000000    0.000000    0.000000    
-5.346305    152.544144    -13.787429    -0.676306    1.239231    17.267200    -1.284921    0.848835    7.311381    -2.844469    0.115256    2.436701    3.397871    2.515803    -9.686047    8.087449    -2.105317    -9.223047    2.907246    3.759388    -7.901144    -43.725079    18.866297    -44.862885    -11.880796    -13.949480    -130.461731    3.076665    -37.522038    -5.446319    -2.608783    8.415449    -2.203295    33.519821    6.318663    56.282310    -16.184071    -37.069611    61.587082    10.248410    -26.640089    28.145771    2.858019    -34.029621    -26.228004    -11.113286    22.408955    -19.338282    -9.559228    2.610577    30.733540    0.000000    0.000000    0.000000    1.132266    11.641750    -8.781321    3.415630    21.789913    -0.352254    -2.181055    -29.816038    -5.979332    0.000000    0.000000    0.000000    
-5.345518    152.539536    -13.794370    -0.676301    1.235101    17.267542    -1.278033    0.855657    7.357234    -2.807413    0.129531    2.452287    3.300443    2.470663    -9.703821    8.129372    -2.086535    -9.225222    2.854817    3.746026    -7.904363    -43.668095    18.916943    -44.880119    -11.873972    -14.018856    -130.484726    3.079882    -37.577682    -5.440940    -2.698408    8.358150    -2.034292    33.391720    5.922493    56.895695    -16.477703    -37.038544    60.077160    10.421180    -26.629644    28.611414    2.856966    -34.028637    -26.226080    -11.112587    22.408192    -19.324493    -9.557816    2.614760    30.717607    0.000000    0.000000    0.000000    1.129876    11.592789    -8.766715    3.424787    21.789701    -0.334781    -2.205284    -29.759249    -6.012084    0.000000    0.000000    0.000000    
-5.346476    152.535004    -13.800383    -0.679669    1.231224    17.273645    -1.264482    0.862109    7.402012    -2.771998    0.143919    2.467557    3.213574    2.422647    -9.715573    8.150226    -2.072536    -9.225500    2.817907    3.677140    -7.913597    -43.661724    18.996405    -44.848454    -11.866733    -14.068449    -130.497955    3.036972    -37.610493    -5.461240    -2.803279    8.298888    -1.874447    33.236580    5.569962    57.476913    -16.835430    -37.011646    58.526279    10.577150    -26.600786    29.135328    2.859276    -34.028069    -26.233709    -11.113094    22.405487    -19.310329    -9.576101    2.603448    30.709856    0.000000    0.000000    0.000000    1.133343    11.643723    -8.769747    3.429220    21.795992    -0.350453    -2.201470    -29.835611    -5.997271    0.000000    0.000000    0.000000    
-5.346550    152.530487    -13.806857    -0.680155    1.234441    17.281628    -1.818315    -0.820319    7.684783    -1.211975    3.154516    2.598834    2.312848    1.303511    -9.891412    8.248464    -2.364666    -9.281095    2.598218    2.612280    -8.110008    -43.422680    19.251766    -45.632286    -11.583706    -15.415193    -130.394333    2.647925    -38.130985    -5.504659    -4.401706    7.256968    -2.332812    32.731609    5.580331    58.738483    -18.281754    -37.858521    55.874561    11.073215    -27.147421    29.573120    2.857492    -34.034046    -26.251665    -11.122095    22.397367    -19.296438    -9.573852    2.605687    30.701599    0.000000    0.000000    0.000000    1.134753    11.633574    -8.759935    3.435802    21.807774    -0.363493    -2.218536    -29.844498    -6.020642    0.000000    0.000000    0.000000    
-5.344995    152.527893    -13.812363    -0.680362    1.236005    17.292591    -1.239641    0.869413    7.483961    -2.744328    0.157526    2.495214    3.096248    2.368477    -9.739204    8.194935    -2.075502    -9.229403    2.756964    3.652944    -7.917086    -43.584965    19.078058    -44.877827    -11.886649    -14.107377    -130.557678    3.279492    -37.713005    -5.254966    -2.965729    8.078849    -1.529920    32.931427    4.938797    58.431839    -17.499384    -36.779068    55.593132    10.672083    -26.438644    29.847181    2.851417    -34.037605    -26.273613    -11.129674    22.391092    -19.285313    -9.579755    2.608509    30.707621    0.000000    0.000000    0.000000    1.132391    11.570098    -8.764333    3.443068    21.827887    -0.318570    -2.235094    -29.780527    -6.071991    0.000000    0.000000    0.000000    
-5.342462    152.525253    -13.820418    -0.678517    1.242377    17.305250    -1.227852    0.862777    7.520934    -2.730835    0.176995    2.508062    3.043905    2.330060    -9.742073    8.206885    -2.065914    -9.225509    2.722007    3.639615    -7.931404    -43.543648    19.112007    -44.883427    -11.888852    -14.132102    -130.584625    3.430818    -37.753452    -5.145939    -3.053539    7.978338    -1.376569    32.740131    4.669532    58.885281    -17.853079    -36.657661    54.147064    10.682715    -26.364941    30.106329    2.836212    -34.047077    -26.293037    -11.128095    22.391481    -19.281916    -9.578442    2.617943    30.703169    0.000000    0.000000    0.000000    1.132403    11.613390    -8.751745    3.445190    21.832573    -0.350263    -2.208768    -29.855362    -6.059721    0.000000    0.000000    0.000000    
-5.338104    152.521667    -13.824161    -0.677379    1.247470    17.311386    -1.747346    -0.860217    7.768621    -1.187050    3.273896    2.627387    2.076741    1.152788    -9.902777    8.358979    -2.313264    -9.249132    2.475101    2.526980    -8.055450    -43.252434    19.396961    -45.681942    -11.659670    -15.449335    -130.532349    3.414821    -38.379784    -5.007439    -4.743822    6.946925    -1.867217    32.305958    4.641446    60.150993    -19.147381    -37.370842    51.623646    11.112047    -26.870834    30.695559    2.829339    -34.055218    -26.303215    -11.128367    22.394436    -19.295570    -9.599503    2.588151    30.715986    0.000000    0.000000    0.000000    1.131372    11.606696    -8.755075    3.437955    21.841114    -0.348371    -2.225561    -29.873337    -6.070516    0.000000    0.000000    0.000000    
-5.337147    152.520126    -13.827205    -0.674975    1.250815    17.325342    -1.205232    0.839266    7.602742    -2.721585    0.217889    2.536426    2.986294    2.271286    -9.748629    8.209479    -2.046358    -9.227507    2.678895    3.623902    -7.969189    -43.500790    19.150148    -44.903774    -11.896972    -14.160522    -130.578217    3.506761    -37.791004    -5.129857    -3.216451    7.807981    -1.090786    32.402534    4.083968    59.718269    -18.318956    -36.347694    51.470959    10.800307    -26.192476    30.799658    2.819338    -34.060818    -26.320082    -11.136222    22.390196    -19.281071    -9.597219    2.598001    30.705326    0.000000    0.000000    0.000000    1.133020    11.554567    -8.761263    3.440744    21.838976    -0.392324    -2.223238    -29.812473    -6.032409    0.000000    0.000000    0.000000    
-5.333050    152.518417    -13.826905    -0.670847    1.250329    17.337105    -1.191239    0.826425    7.641898    -2.718835    0.250232    2.550293    2.954159    2.246706    -9.753947    8.218861    -2.044283    -9.228224    2.658237    3.616022    -7.983757    -43.484768    19.157309    -44.910694    -11.904566    -14.166336    -130.573212    3.494021    -37.807281    -5.154016    -3.307003    7.733983    -0.968401    32.174713    3.888518    60.114716    -18.620739    -36.250397    50.146564    10.930806    -26.123804    31.157558    2.805872    -34.058594    -26.313351    -11.123222    22.393578    -19.314600    -9.603431    2.586482    30.712929    0.000000    0.000000    0.000000    1.132084    11.564906    -8.777345    3.439277    21.823902    -0.391794    -2.236570    -29.820349    -6.031582    0.000000    0.000000    0.000000    
